<mxfile host="app.diagrams.net" modified="2023-11-21T15:52:45.505Z" agent="Mozilla/5.0 (Windows NT 10.0; Win64; x64) AppleWebKit/537.36 (KHTML, like Gecko) Chrome/119.0.0.0 Safari/537.36" etag="sdAjNaQ0uCnSrQxZRje0" version="22.1.3" type="device">
  <diagram name="Page-1" id="c4acf3e9-155e-7222-9cf6-157b1a14988f">
    <mxGraphModel dx="2049" dy="1083" grid="1" gridSize="10" guides="1" tooltips="1" connect="1" arrows="1" fold="1" page="1" pageScale="1" pageWidth="850" pageHeight="1100" background="none" math="0" shadow="0">
      <root>
        <mxCell id="0" />
        <mxCell id="1" parent="0" />
        <mxCell id="5d2195bd80daf111-16" value="Text" style="text;html=1;resizable=0;points=[];autosize=1;align=left;verticalAlign=top;spacingTop=-4;fontSize=10;fontFamily=Verdana;fontColor=#000000;" parent="1" vertex="1">
          <mxGeometry x="450" y="454" width="40" height="10" as="geometry" />
        </mxCell>
        <mxCell id="80rMo0oRBBuyl4Da9b4H-3" value="" style="rounded=0;whiteSpace=wrap;html=1;" vertex="1" parent="1">
          <mxGeometry x="40" y="40" width="760" height="180" as="geometry" />
        </mxCell>
        <mxCell id="80rMo0oRBBuyl4Da9b4H-4" value="" style="rounded=0;whiteSpace=wrap;html=1;" vertex="1" parent="1">
          <mxGeometry x="40" y="220" width="760" height="260" as="geometry" />
        </mxCell>
        <mxCell id="80rMo0oRBBuyl4Da9b4H-6" value="" style="rounded=0;whiteSpace=wrap;html=1;" vertex="1" parent="1">
          <mxGeometry x="40" y="480" width="760" height="440" as="geometry" />
        </mxCell>
        <mxCell id="80rMo0oRBBuyl4Da9b4H-7" value="&lt;b&gt;&lt;font style=&quot;font-size: 15px;&quot;&gt;AdaptÐµr&lt;/font&gt;&lt;/b&gt;" style="text;html=1;strokeColor=none;fillColor=none;align=center;verticalAlign=middle;whiteSpace=wrap;rounded=0;" vertex="1" parent="1">
          <mxGeometry x="710" y="180" width="90" height="30" as="geometry" />
        </mxCell>
        <mxCell id="80rMo0oRBBuyl4Da9b4H-8" value="&lt;font style=&quot;font-size: 15px;&quot;&gt;&lt;b&gt;Domain&lt;/b&gt;&lt;/font&gt;" style="text;html=1;strokeColor=none;fillColor=none;align=center;verticalAlign=middle;whiteSpace=wrap;rounded=0;" vertex="1" parent="1">
          <mxGeometry x="710" y="890" width="90" height="30" as="geometry" />
        </mxCell>
        <mxCell id="80rMo0oRBBuyl4Da9b4H-9" value="&lt;font style=&quot;font-size: 15px;&quot;&gt;&lt;b&gt;Logic&lt;/b&gt;&lt;/font&gt;" style="text;html=1;strokeColor=none;fillColor=none;align=center;verticalAlign=middle;whiteSpace=wrap;rounded=0;" vertex="1" parent="1">
          <mxGeometry x="710" y="439" width="90" height="40" as="geometry" />
        </mxCell>
        <mxCell id="80rMo0oRBBuyl4Da9b4H-10" value="ReportAdapter" style="swimlane;fontStyle=1;align=center;verticalAlign=top;childLayout=stackLayout;horizontal=1;startSize=26;horizontalStack=0;resizeParent=1;resizeParentMax=0;resizeLast=0;collapsible=1;marginBottom=0;whiteSpace=wrap;html=1;" vertex="1" parent="1">
          <mxGeometry x="345" y="110" width="160" height="86" as="geometry" />
        </mxCell>
        <mxCell id="80rMo0oRBBuyl4Da9b4H-12" value="" style="line;strokeWidth=1;fillColor=none;align=left;verticalAlign=middle;spacingTop=-1;spacingLeft=3;spacingRight=3;rotatable=0;labelPosition=right;points=[];portConstraint=eastwest;strokeColor=inherit;" vertex="1" parent="80rMo0oRBBuyl4Da9b4H-10">
          <mxGeometry y="26" width="160" height="8" as="geometry" />
        </mxCell>
        <mxCell id="80rMo0oRBBuyl4Da9b4H-13" value="+ recieve(T): T" style="text;strokeColor=none;fillColor=none;align=left;verticalAlign=top;spacingLeft=4;spacingRight=4;overflow=hidden;rotatable=0;points=[[0,0.5],[1,0.5]];portConstraint=eastwest;whiteSpace=wrap;html=1;" vertex="1" parent="80rMo0oRBBuyl4Da9b4H-10">
          <mxGeometry y="34" width="160" height="26" as="geometry" />
        </mxCell>
        <mxCell id="80rMo0oRBBuyl4Da9b4H-71" value="+ send(T): void" style="text;strokeColor=none;fillColor=none;align=left;verticalAlign=top;spacingLeft=4;spacingRight=4;overflow=hidden;rotatable=0;points=[[0,0.5],[1,0.5]];portConstraint=eastwest;whiteSpace=wrap;html=1;" vertex="1" parent="80rMo0oRBBuyl4Da9b4H-10">
          <mxGeometry y="60" width="160" height="26" as="geometry" />
        </mxCell>
        <mxCell id="80rMo0oRBBuyl4Da9b4H-14" value="ReportService" style="swimlane;fontStyle=1;align=center;verticalAlign=top;childLayout=stackLayout;horizontal=1;startSize=26;horizontalStack=0;resizeParent=1;resizeParentMax=0;resizeLast=0;collapsible=1;marginBottom=0;whiteSpace=wrap;html=1;" vertex="1" parent="1">
          <mxGeometry x="290" y="280" width="260" height="160" as="geometry" />
        </mxCell>
        <mxCell id="80rMo0oRBBuyl4Da9b4H-70" value="- repository: ReportRepository" style="text;strokeColor=none;fillColor=none;align=left;verticalAlign=top;spacingLeft=4;spacingRight=4;overflow=hidden;rotatable=0;points=[[0,0.5],[1,0.5]];portConstraint=eastwest;whiteSpace=wrap;html=1;" vertex="1" parent="80rMo0oRBBuyl4Da9b4H-14">
          <mxGeometry y="26" width="260" height="26" as="geometry" />
        </mxCell>
        <mxCell id="80rMo0oRBBuyl4Da9b4H-15" value="- interface: ReportAdapter" style="text;strokeColor=none;fillColor=none;align=left;verticalAlign=top;spacingLeft=4;spacingRight=4;overflow=hidden;rotatable=0;points=[[0,0.5],[1,0.5]];portConstraint=eastwest;whiteSpace=wrap;html=1;" vertex="1" parent="80rMo0oRBBuyl4Da9b4H-14">
          <mxGeometry y="52" width="260" height="26" as="geometry" />
        </mxCell>
        <mxCell id="80rMo0oRBBuyl4Da9b4H-16" value="" style="line;strokeWidth=1;fillColor=none;align=left;verticalAlign=middle;spacingTop=-1;spacingLeft=3;spacingRight=3;rotatable=0;labelPosition=right;points=[];portConstraint=eastwest;strokeColor=inherit;" vertex="1" parent="80rMo0oRBBuyl4Da9b4H-14">
          <mxGeometry y="78" width="260" height="8" as="geometry" />
        </mxCell>
        <mxCell id="80rMo0oRBBuyl4Da9b4H-17" value="+ sortByType(T): T" style="text;strokeColor=none;fillColor=none;align=left;verticalAlign=top;spacingLeft=4;spacingRight=4;overflow=hidden;rotatable=0;points=[[0,0.5],[1,0.5]];portConstraint=eastwest;whiteSpace=wrap;html=1;" vertex="1" parent="80rMo0oRBBuyl4Da9b4H-14">
          <mxGeometry y="86" width="260" height="26" as="geometry" />
        </mxCell>
        <mxCell id="80rMo0oRBBuyl4Da9b4H-59" value="+ sortBySubcategory(T): T" style="text;strokeColor=none;fillColor=none;align=left;verticalAlign=top;spacingLeft=4;spacingRight=4;overflow=hidden;rotatable=0;points=[[0,0.5],[1,0.5]];portConstraint=eastwest;whiteSpace=wrap;html=1;" vertex="1" parent="80rMo0oRBBuyl4Da9b4H-14">
          <mxGeometry y="112" width="260" height="26" as="geometry" />
        </mxCell>
        <mxCell id="80rMo0oRBBuyl4Da9b4H-60" value="+ sortByCategory(T): T" style="text;strokeColor=none;fillColor=none;align=left;verticalAlign=top;spacingLeft=4;spacingRight=4;overflow=hidden;rotatable=0;points=[[0,0.5],[1,0.5]];portConstraint=eastwest;whiteSpace=wrap;html=1;" vertex="1" parent="80rMo0oRBBuyl4Da9b4H-14">
          <mxGeometry y="138" width="260" height="22" as="geometry" />
        </mxCell>
        <mxCell id="80rMo0oRBBuyl4Da9b4H-18" value="ReportRepository" style="swimlane;fontStyle=1;align=center;verticalAlign=top;childLayout=stackLayout;horizontal=1;startSize=26;horizontalStack=0;resizeParent=1;resizeParentMax=0;resizeLast=0;collapsible=1;marginBottom=0;whiteSpace=wrap;html=1;" vertex="1" parent="1">
          <mxGeometry x="65" y="607" width="160" height="130" as="geometry" />
        </mxCell>
        <mxCell id="80rMo0oRBBuyl4Da9b4H-19" value="- dataBase: DataBase" style="text;strokeColor=none;fillColor=none;align=left;verticalAlign=top;spacingLeft=4;spacingRight=4;overflow=hidden;rotatable=0;points=[[0,0.5],[1,0.5]];portConstraint=eastwest;whiteSpace=wrap;html=1;" vertex="1" parent="80rMo0oRBBuyl4Da9b4H-18">
          <mxGeometry y="26" width="160" height="26" as="geometry" />
        </mxCell>
        <mxCell id="80rMo0oRBBuyl4Da9b4H-20" value="" style="line;strokeWidth=1;fillColor=none;align=left;verticalAlign=middle;spacingTop=-1;spacingLeft=3;spacingRight=3;rotatable=0;labelPosition=right;points=[];portConstraint=eastwest;strokeColor=inherit;" vertex="1" parent="80rMo0oRBBuyl4Da9b4H-18">
          <mxGeometry y="52" width="160" height="8" as="geometry" />
        </mxCell>
        <mxCell id="80rMo0oRBBuyl4Da9b4H-21" value="+ create(T): void&lt;br&gt;+ get(T): T&lt;br&gt;+ update(T): void&lt;br&gt;+ delete(T): void" style="text;strokeColor=none;fillColor=none;align=left;verticalAlign=top;spacingLeft=4;spacingRight=4;overflow=hidden;rotatable=0;points=[[0,0.5],[1,0.5]];portConstraint=eastwest;whiteSpace=wrap;html=1;" vertex="1" parent="80rMo0oRBBuyl4Da9b4H-18">
          <mxGeometry y="60" width="160" height="70" as="geometry" />
        </mxCell>
        <mxCell id="80rMo0oRBBuyl4Da9b4H-24" value="" style="endArrow=block;dashed=1;endFill=0;endSize=12;html=1;rounded=0;entryX=0.389;entryY=0.023;entryDx=0;entryDy=0;exitX=0;exitY=0.143;exitDx=0;exitDy=0;exitPerimeter=0;entryPerimeter=0;" edge="1" parent="1" source="80rMo0oRBBuyl4Da9b4H-10" target="80rMo0oRBBuyl4Da9b4H-29">
          <mxGeometry width="160" relative="1" as="geometry">
            <mxPoint x="70" y="260" as="sourcePoint" />
            <mxPoint x="125" y="210" as="targetPoint" />
            <Array as="points">
              <mxPoint x="124" y="122" />
            </Array>
          </mxGeometry>
        </mxCell>
        <mxCell id="80rMo0oRBBuyl4Da9b4H-25" value="" style="endArrow=diamondThin;endFill=1;endSize=24;html=1;rounded=0;entryX=0.5;entryY=0;entryDx=0;entryDy=0;exitX=0.475;exitY=0.962;exitDx=0;exitDy=0;exitPerimeter=0;" edge="1" parent="1" source="80rMo0oRBBuyl4Da9b4H-71" target="80rMo0oRBBuyl4Da9b4H-14">
          <mxGeometry width="160" relative="1" as="geometry">
            <mxPoint x="420" y="200" as="sourcePoint" />
            <mxPoint x="230" y="260" as="targetPoint" />
            <Array as="points">
              <mxPoint x="420" y="236" />
            </Array>
          </mxGeometry>
        </mxCell>
        <mxCell id="80rMo0oRBBuyl4Da9b4H-26" value="" style="endArrow=diamondThin;endFill=1;endSize=24;html=1;rounded=0;exitX=0.75;exitY=0;exitDx=0;exitDy=0;" edge="1" parent="1" source="80rMo0oRBBuyl4Da9b4H-18">
          <mxGeometry width="160" relative="1" as="geometry">
            <mxPoint x="115" y="464" as="sourcePoint" />
            <mxPoint x="320" y="440" as="targetPoint" />
            <Array as="points">
              <mxPoint x="185" y="580" />
              <mxPoint x="320" y="580" />
            </Array>
          </mxGeometry>
        </mxCell>
        <mxCell id="80rMo0oRBBuyl4Da9b4H-27" value="" style="endArrow=block;dashed=1;endFill=0;endSize=12;html=1;rounded=0;entryX=0.342;entryY=1.007;entryDx=0;entryDy=0;exitX=0.313;exitY=-0.023;exitDx=0;exitDy=0;exitPerimeter=0;entryPerimeter=0;" edge="1" parent="1" source="80rMo0oRBBuyl4Da9b4H-18" target="80rMo0oRBBuyl4Da9b4H-28">
          <mxGeometry width="160" relative="1" as="geometry">
            <mxPoint x="70" y="530" as="sourcePoint" />
            <mxPoint x="115" y="514" as="targetPoint" />
            <Array as="points">
              <mxPoint x="115" y="561" />
            </Array>
          </mxGeometry>
        </mxCell>
        <mxCell id="80rMo0oRBBuyl4Da9b4H-28" value="&lt;p style=&quot;margin:0px;margin-top:4px;text-align:center;&quot;&gt;&lt;i&gt;&amp;lt;&amp;lt;Interface&amp;gt;&amp;gt;&lt;/i&gt;&lt;br&gt;&lt;b&gt;IRepository&lt;/b&gt;&lt;/p&gt;&lt;hr size=&quot;1&quot;&gt;&lt;p style=&quot;margin:0px;margin-left:4px;&quot;&gt;&lt;br&gt;&lt;/p&gt;&lt;hr size=&quot;1&quot;&gt;&lt;p style=&quot;margin:0px;margin-left:4px;&quot;&gt;+ create(T): void&lt;br&gt;+ get(T): T&lt;/p&gt;&lt;p style=&quot;margin:0px;margin-left:4px;&quot;&gt;+ update(T): void&lt;/p&gt;&lt;p style=&quot;margin:0px;margin-left:4px;&quot;&gt;+ delete(T): void&lt;/p&gt;" style="verticalAlign=top;align=left;overflow=fill;fontSize=12;fontFamily=Helvetica;html=1;whiteSpace=wrap;" vertex="1" parent="1">
          <mxGeometry x="50" y="400" width="190" height="140" as="geometry" />
        </mxCell>
        <mxCell id="80rMo0oRBBuyl4Da9b4H-29" value="&lt;p style=&quot;margin:0px;margin-top:4px;text-align:center;&quot;&gt;&lt;i&gt;&amp;lt;&amp;lt;Interface&amp;gt;&amp;gt;&lt;/i&gt;&lt;br&gt;&lt;b&gt;IServer&lt;/b&gt;&lt;/p&gt;&lt;hr size=&quot;1&quot;&gt;&lt;p style=&quot;margin:0px;margin-left:4px;&quot;&gt;&lt;br&gt;&lt;/p&gt;&lt;hr size=&quot;1&quot;&gt;&lt;p style=&quot;margin:0px;margin-left:4px;&quot;&gt;+ recieve(T): T&lt;br&gt;+ send(T): void&lt;/p&gt;" style="verticalAlign=top;align=left;overflow=fill;fontSize=12;fontFamily=Helvetica;html=1;whiteSpace=wrap;" vertex="1" parent="1">
          <mxGeometry x="50" y="180" width="190" height="130" as="geometry" />
        </mxCell>
        <mxCell id="80rMo0oRBBuyl4Da9b4H-32" value="&lt;p style=&quot;margin:0px;margin-top:4px;text-align:center;&quot;&gt;&lt;b&gt;Product&lt;/b&gt;&lt;/p&gt;&lt;hr size=&quot;1&quot;&gt;&lt;p style=&quot;margin:0px;margin-left:4px;&quot;&gt;+ field: Type&lt;/p&gt;&lt;hr size=&quot;1&quot;&gt;&lt;p style=&quot;margin:0px;margin-left:4px;&quot;&gt;+ method(): Type&lt;/p&gt;" style="verticalAlign=top;align=left;overflow=fill;fontSize=12;fontFamily=Helvetica;html=1;whiteSpace=wrap;" vertex="1" parent="1">
          <mxGeometry x="440" y="540" width="140" height="80" as="geometry" />
        </mxCell>
        <mxCell id="80rMo0oRBBuyl4Da9b4H-33" value="&lt;p style=&quot;margin:0px;margin-top:4px;text-align:center;&quot;&gt;&lt;b&gt;Category&lt;/b&gt;&lt;/p&gt;&lt;hr size=&quot;1&quot;&gt;&lt;div style=&quot;height:2px;&quot;&gt;&lt;/div&gt;&lt;hr size=&quot;1&quot;&gt;&lt;div style=&quot;height:2px;&quot;&gt;&lt;/div&gt;" style="verticalAlign=top;align=left;overflow=fill;fontSize=12;fontFamily=Helvetica;html=1;whiteSpace=wrap;" vertex="1" parent="1">
          <mxGeometry x="620" y="520" width="140" height="60" as="geometry" />
        </mxCell>
        <mxCell id="80rMo0oRBBuyl4Da9b4H-34" value="&lt;p style=&quot;margin:0px;margin-top:4px;text-align:center;&quot;&gt;&lt;b&gt;Subategory&lt;/b&gt;&lt;/p&gt;&lt;hr size=&quot;1&quot;&gt;&lt;div style=&quot;height:2px;&quot;&gt;&lt;/div&gt;&lt;hr size=&quot;1&quot;&gt;&lt;div style=&quot;height:2px;&quot;&gt;&lt;/div&gt;" style="verticalAlign=top;align=left;overflow=fill;fontSize=12;fontFamily=Helvetica;html=1;whiteSpace=wrap;" vertex="1" parent="1">
          <mxGeometry x="620" y="630" width="140" height="60" as="geometry" />
        </mxCell>
        <mxCell id="80rMo0oRBBuyl4Da9b4H-35" value="&lt;p style=&quot;margin:0px;margin-top:4px;text-align:center;&quot;&gt;&lt;b&gt;Type&lt;/b&gt;&lt;/p&gt;&lt;hr size=&quot;1&quot;&gt;&lt;div style=&quot;height:2px;&quot;&gt;&lt;/div&gt;&lt;hr size=&quot;1&quot;&gt;&lt;div style=&quot;height:2px;&quot;&gt;&lt;/div&gt;" style="verticalAlign=top;align=left;overflow=fill;fontSize=12;fontFamily=Helvetica;html=1;whiteSpace=wrap;" vertex="1" parent="1">
          <mxGeometry x="620" y="760" width="140" height="60" as="geometry" />
        </mxCell>
        <mxCell id="80rMo0oRBBuyl4Da9b4H-36" value="&lt;p style=&quot;margin:0px;margin-top:4px;text-align:center;&quot;&gt;&lt;b&gt;Customer&lt;/b&gt;&lt;/p&gt;&lt;hr size=&quot;1&quot;&gt;&lt;div style=&quot;height:2px;&quot;&gt;&lt;/div&gt;&lt;hr size=&quot;1&quot;&gt;&lt;div style=&quot;height:2px;&quot;&gt;&lt;/div&gt;" style="verticalAlign=top;align=left;overflow=fill;fontSize=12;fontFamily=Helvetica;html=1;whiteSpace=wrap;" vertex="1" parent="1">
          <mxGeometry x="450" y="790" width="140" height="60" as="geometry" />
        </mxCell>
        <mxCell id="80rMo0oRBBuyl4Da9b4H-37" value="&lt;p style=&quot;margin:0px;margin-top:4px;text-align:center;&quot;&gt;&lt;b&gt;Sale&lt;/b&gt;&lt;/p&gt;&lt;hr size=&quot;1&quot;&gt;&lt;div style=&quot;height:2px;&quot;&gt;&lt;/div&gt;&lt;hr size=&quot;1&quot;&gt;&lt;div style=&quot;height:2px;&quot;&gt;&lt;/div&gt;" style="verticalAlign=top;align=left;overflow=fill;fontSize=12;fontFamily=Helvetica;html=1;whiteSpace=wrap;" vertex="1" parent="1">
          <mxGeometry x="450" y="700" width="140" height="60" as="geometry" />
        </mxCell>
        <mxCell id="80rMo0oRBBuyl4Da9b4H-38" value="&lt;p style=&quot;margin:0px;margin-top:4px;text-align:center;&quot;&gt;&lt;b&gt;DataBase&lt;/b&gt;&lt;/p&gt;&lt;hr size=&quot;1&quot;&gt;&lt;div style=&quot;height:2px;&quot;&gt;&lt;/div&gt;&lt;hr size=&quot;1&quot;&gt;&lt;div style=&quot;height:2px;&quot;&gt;&lt;/div&gt;" style="verticalAlign=top;align=left;overflow=fill;fontSize=12;fontFamily=Helvetica;html=1;whiteSpace=wrap;" vertex="1" parent="1">
          <mxGeometry x="270" y="630" width="140" height="60" as="geometry" />
        </mxCell>
        <mxCell id="80rMo0oRBBuyl4Da9b4H-39" value="" style="endArrow=open;endFill=1;endSize=12;html=1;rounded=0;entryX=0.5;entryY=0;entryDx=0;entryDy=0;exitX=0;exitY=0.25;exitDx=0;exitDy=0;" edge="1" parent="1" source="80rMo0oRBBuyl4Da9b4H-32" target="80rMo0oRBBuyl4Da9b4H-38">
          <mxGeometry width="160" relative="1" as="geometry">
            <mxPoint x="500" y="530" as="sourcePoint" />
            <mxPoint x="340" y="530" as="targetPoint" />
            <Array as="points">
              <mxPoint x="340" y="560" />
            </Array>
          </mxGeometry>
        </mxCell>
        <mxCell id="80rMo0oRBBuyl4Da9b4H-41" value="" style="endArrow=open;endFill=1;endSize=12;html=1;rounded=0;entryX=1;entryY=0.5;entryDx=0;entryDy=0;exitX=0;exitY=0.5;exitDx=0;exitDy=0;" edge="1" parent="1" source="80rMo0oRBBuyl4Da9b4H-34" target="80rMo0oRBBuyl4Da9b4H-38">
          <mxGeometry width="160" relative="1" as="geometry">
            <mxPoint x="570" y="662.5" as="sourcePoint" />
            <mxPoint x="410" y="660" as="targetPoint" />
          </mxGeometry>
        </mxCell>
        <mxCell id="80rMo0oRBBuyl4Da9b4H-43" value="" style="endArrow=open;endFill=1;endSize=12;html=1;rounded=0;entryX=0.429;entryY=1.067;entryDx=0;entryDy=0;entryPerimeter=0;exitX=0;exitY=0.25;exitDx=0;exitDy=0;" edge="1" parent="1" source="80rMo0oRBBuyl4Da9b4H-36" target="80rMo0oRBBuyl4Da9b4H-38">
          <mxGeometry width="160" relative="1" as="geometry">
            <mxPoint x="500" y="760" as="sourcePoint" />
            <mxPoint x="340" y="760" as="targetPoint" />
            <Array as="points">
              <mxPoint x="330" y="805" />
            </Array>
          </mxGeometry>
        </mxCell>
        <mxCell id="80rMo0oRBBuyl4Da9b4H-47" value="" style="endArrow=none;html=1;rounded=0;entryX=0.5;entryY=0;entryDx=0;entryDy=0;" edge="1" parent="1" target="80rMo0oRBBuyl4Da9b4H-33">
          <mxGeometry width="50" height="50" relative="1" as="geometry">
            <mxPoint x="340" y="560" as="sourcePoint" />
            <mxPoint x="450" y="510" as="targetPoint" />
            <Array as="points">
              <mxPoint x="340" y="500" />
              <mxPoint x="690" y="500" />
            </Array>
          </mxGeometry>
        </mxCell>
        <mxCell id="80rMo0oRBBuyl4Da9b4H-51" value="" style="endArrow=none;html=1;rounded=0;entryX=0;entryY=0.25;entryDx=0;entryDy=0;" edge="1" parent="1" target="80rMo0oRBBuyl4Da9b4H-37">
          <mxGeometry width="50" height="50" relative="1" as="geometry">
            <mxPoint x="330" y="715" as="sourcePoint" />
            <mxPoint x="440" y="705" as="targetPoint" />
          </mxGeometry>
        </mxCell>
        <mxCell id="80rMo0oRBBuyl4Da9b4H-53" value="" style="endArrow=none;html=1;rounded=0;exitX=0.5;exitY=1;exitDx=0;exitDy=0;" edge="1" parent="1" source="80rMo0oRBBuyl4Da9b4H-35">
          <mxGeometry width="50" height="50" relative="1" as="geometry">
            <mxPoint x="340" y="880" as="sourcePoint" />
            <mxPoint x="330" y="800" as="targetPoint" />
            <Array as="points">
              <mxPoint x="690" y="880" />
              <mxPoint x="330" y="880" />
            </Array>
          </mxGeometry>
        </mxCell>
        <mxCell id="80rMo0oRBBuyl4Da9b4H-56" value="" style="endArrow=diamondThin;endFill=1;endSize=24;html=1;rounded=0;entryX=0.5;entryY=1.014;entryDx=0;entryDy=0;exitX=0.15;exitY=0.983;exitDx=0;exitDy=0;exitPerimeter=0;entryPerimeter=0;" edge="1" parent="1" source="80rMo0oRBBuyl4Da9b4H-38" target="80rMo0oRBBuyl4Da9b4H-21">
          <mxGeometry width="160" relative="1" as="geometry">
            <mxPoint x="310" y="770" as="sourcePoint" />
            <mxPoint x="150" y="770" as="targetPoint" />
            <Array as="points">
              <mxPoint x="290" y="790" />
              <mxPoint x="145" y="790" />
            </Array>
          </mxGeometry>
        </mxCell>
        <mxCell id="80rMo0oRBBuyl4Da9b4H-68" value="" style="endArrow=open;endFill=1;endSize=12;html=1;rounded=0;exitX=0;exitY=0.5;exitDx=0;exitDy=0;entryX=0.416;entryY=-0.007;entryDx=0;entryDy=0;entryPerimeter=0;" edge="1" parent="1" source="80rMo0oRBBuyl4Da9b4H-17" target="80rMo0oRBBuyl4Da9b4H-28">
          <mxGeometry width="160" relative="1" as="geometry">
            <mxPoint x="340" y="430" as="sourcePoint" />
            <mxPoint x="500" y="430" as="targetPoint" />
            <Array as="points">
              <mxPoint x="129" y="380" />
            </Array>
          </mxGeometry>
        </mxCell>
        <mxCell id="80rMo0oRBBuyl4Da9b4H-69" value="" style="endArrow=open;endFill=1;endSize=12;html=1;rounded=0;exitX=0;exitY=0.5;exitDx=0;exitDy=0;entryX=0.647;entryY=0.992;entryDx=0;entryDy=0;entryPerimeter=0;" edge="1" parent="1" target="80rMo0oRBBuyl4Da9b4H-29">
          <mxGeometry width="160" relative="1" as="geometry">
            <mxPoint x="290" y="354" as="sourcePoint" />
            <mxPoint x="129" y="400" as="targetPoint" />
            <Array as="points">
              <mxPoint x="173" y="354" />
            </Array>
          </mxGeometry>
        </mxCell>
      </root>
    </mxGraphModel>
  </diagram>
</mxfile>
